<svg width="159" height="24" viewBox="0 0 159 24" fill="none" xmlns="http://www.w3.org/2000/svg">
<path d="M4.948 23C3.316 23 2.116 22.928 1.348 22.784C0.58 22.64 0.196 22.472 0.196 22.28L2.356 17.636C2.908 17.732 4.048 17.828 5.776 17.924C7.504 17.996 9.748 18.032 12.508 18.032H15.352C16.192 18.032 16.756 17.912 17.044 17.672C17.332 17.432 17.476 17.084 17.476 16.628V16.268C17.476 15.692 17.332 15.296 17.044 15.08C16.756 14.864 16.192 14.756 15.352 14.756H7.108C4.684 14.756 2.92 14.312 1.816 13.424C0.712 12.512 0.16 11.036 0.16 8.996V7.7C0.16 6.644 0.352 5.672 0.736 4.784C1.144 3.896 1.828 3.188 2.788 2.66C3.748 2.108 5.068 1.832 6.748 1.832H18.7C20.164 1.832 21.376 1.916 22.336 2.084C23.32 2.252 23.812 2.432 23.812 2.624L22.732 7.088C22.06 7.016 20.788 6.944 18.916 6.872C17.068 6.776 14.716 6.728 11.86 6.728L9.268 6.692C8.524 6.692 7.996 6.8 7.684 7.016C7.372 7.208 7.204 7.58 7.18 8.132V8.384C7.18 8.936 7.348 9.32 7.684 9.536C8.02 9.752 8.56 9.86 9.304 9.86H17.224C18.76 9.86 20.068 10.016 21.148 10.328C22.228 10.64 23.056 11.216 23.632 12.056C24.208 12.872 24.496 14.084 24.496 15.692V16.988C24.496 18.788 24.028 20.24 23.092 21.344C22.18 22.448 20.584 23 18.304 23H4.948ZM34.1763 23C32.0643 23 30.5523 22.604 29.6403 21.812C28.7283 21.02 28.2723 19.7 28.2723 17.852C28.2723 16.148 28.7403 14.912 29.6763 14.144C30.6363 13.376 32.1363 12.992 34.1763 12.992H35.2923C36.6363 12.992 37.9203 13.04 39.1443 13.136C40.3683 13.232 41.4243 13.328 42.3123 13.424V12.848C42.3123 12.512 42.2403 12.188 42.0963 11.876C41.9523 11.564 41.4483 11.408 40.5843 11.408H38.7843C36.1683 11.408 34.1523 11.456 32.7363 11.552C31.3203 11.624 30.4443 11.696 30.1083 11.768L29.7123 7.952C29.7123 7.712 30.1323 7.52 30.9723 7.376C31.8123 7.208 32.9643 7.088 34.4283 7.016C35.8923 6.92 37.5603 6.872 39.4323 6.872H43.0323C44.6163 6.872 45.8283 7.112 46.6683 7.592C47.5083 8.048 48.0843 8.672 48.3963 9.464C48.7083 10.256 48.8643 11.168 48.8643 12.2V23H43.7523L42.3483 22.28C41.7723 22.4 40.8483 22.556 39.5763 22.748C38.3283 22.916 36.8883 23 35.2563 23H34.1763ZM36.2643 18.752H41.2323C41.7603 18.752 42.0723 18.704 42.1683 18.608C42.2643 18.512 42.3123 18.212 42.3123 17.708V16.448H36.2643C35.8083 16.448 35.4723 16.532 35.2563 16.7C35.0403 16.868 34.9323 17.192 34.9323 17.672C34.9323 18.128 35.0403 18.428 35.2563 18.572C35.4723 18.692 35.8083 18.752 36.2643 18.752ZM71.6838 23.36C70.5078 23.36 69.4758 23.24 68.5878 23C67.7238 22.76 66.8958 22.244 66.1038 21.452C65.6238 20.972 65.1438 20.492 64.6638 20.012C64.1838 19.532 63.7038 19.052 63.2238 18.572C62.8398 18.164 62.5278 17.852 62.2878 17.636C62.0478 17.396 61.8078 17.24 61.5678 17.168C61.3518 17.072 61.0398 17.024 60.6318 17.024C60.1038 17.024 59.7918 17.072 59.6958 17.168C59.5998 17.264 59.5518 17.588 59.5518 18.14V23H52.9998V0.211999H59.5518V12.416H60.7038C61.1118 12.416 61.4958 12.248 61.8558 11.912C62.0718 11.696 62.3958 11.3 62.8278 10.724C63.2838 10.148 63.7758 9.512 64.3038 8.816C64.8318 8.12 65.3118 7.484 65.7438 6.908H73.3038L72.7278 8.024C72.1518 8.744 71.4798 9.536 70.7118 10.4C69.9678 11.264 69.2358 12.056 68.5158 12.776C67.8198 13.496 67.2558 14 66.8238 14.288C67.7598 14.912 68.6358 15.584 69.4518 16.304C70.2678 17 71.3118 17.624 72.5838 18.176C73.4238 18.536 74.1318 18.776 74.7078 18.896C75.3078 18.992 75.7278 19.04 75.9678 19.04L74.9598 23C74.7198 23.072 74.3118 23.144 73.7358 23.216C73.1838 23.312 72.4998 23.36 71.6838 23.36ZM82.4926 23C80.0686 23 78.8566 21.968 78.8566 19.904C78.8566 18.752 79.1566 17.96 79.7566 17.528C80.3806 17.072 81.2926 16.844 82.4926 16.844C83.7646 16.844 84.6886 17.072 85.2646 17.528C85.8646 17.96 86.1646 18.752 86.1646 19.904C86.1646 21.968 84.9406 23 82.4926 23ZM96.7227 23C95.1387 23 93.9147 22.772 93.0507 22.316C92.2107 21.86 91.6347 21.236 91.3227 20.444C91.0107 19.628 90.8547 18.692 90.8547 17.636V12.2C90.8547 11.24 91.0107 10.364 91.3227 9.572C91.6587 8.756 92.2467 8.108 93.0867 7.628C93.9267 7.124 95.1387 6.872 96.7227 6.872H101.331C104.091 6.872 106.119 6.992 107.415 7.232C108.711 7.472 109.443 7.712 109.611 7.952L108.531 11.768C108.027 11.72 107.115 11.648 105.795 11.552C104.475 11.456 103.023 11.408 101.439 11.408H99.2427C98.6187 11.408 98.1747 11.528 97.9107 11.768C97.6467 12.008 97.5147 12.368 97.5147 12.848V17.024C97.5147 17.504 97.6347 17.864 97.8747 18.104C98.1147 18.344 98.5707 18.464 99.2427 18.464H101.079C102.855 18.464 104.379 18.428 105.651 18.356C106.947 18.26 107.895 18.176 108.495 18.104L110.655 21.524C110.655 21.86 110.055 22.196 108.855 22.532C107.679 22.844 105.915 23 103.563 23H96.7227ZM117.255 23C115.647 23 114.507 22.916 113.835 22.748C113.163 22.58 112.827 22.412 112.827 22.244L114.267 18.464C114.555 18.536 115.407 18.62 116.823 18.716C118.263 18.788 120.351 18.824 123.087 18.824H125.643C126.243 18.824 126.615 18.764 126.759 18.644C126.927 18.5 127.011 18.26 127.011 17.924C127.011 17.516 126.915 17.264 126.723 17.168C126.555 17.048 126.195 16.988 125.643 16.988H118.335C116.583 16.988 115.227 16.664 114.267 16.016C113.307 15.344 112.827 14.156 112.827 12.452V11.732C112.827 10.844 112.947 10.04 113.187 9.32C113.427 8.576 113.943 7.988 114.735 7.556C115.527 7.1 116.727 6.872 118.335 6.872H128.991C130.431 6.872 131.451 6.956 132.051 7.124C132.651 7.292 132.951 7.46 132.951 7.628L132.591 11.444C132.207 11.372 131.235 11.3 129.675 11.228C128.139 11.132 126.015 11.084 123.303 11.084H120.747C120.147 11.084 119.763 11.156 119.595 11.3C119.451 11.42 119.379 11.636 119.379 11.948C119.379 12.26 119.451 12.488 119.595 12.632C119.763 12.752 120.147 12.812 120.747 12.812H128.199C130.071 12.812 131.451 13.22 132.339 14.036C133.227 14.852 133.671 15.992 133.671 17.456V18.14C133.671 19.004 133.563 19.808 133.347 20.552C133.131 21.272 132.639 21.86 131.871 22.316C131.103 22.772 129.879 23 128.199 23H117.255ZM141.689 23C140.081 23 138.941 22.916 138.269 22.748C137.597 22.58 137.261 22.412 137.261 22.244L138.701 18.464C138.989 18.536 139.841 18.62 141.257 18.716C142.697 18.788 144.785 18.824 147.521 18.824H150.077C150.677 18.824 151.049 18.764 151.193 18.644C151.361 18.5 151.445 18.26 151.445 17.924C151.445 17.516 151.349 17.264 151.157 17.168C150.989 17.048 150.629 16.988 150.077 16.988H142.769C141.017 16.988 139.661 16.664 138.701 16.016C137.741 15.344 137.261 14.156 137.261 12.452V11.732C137.261 10.844 137.381 10.04 137.621 9.32C137.861 8.576 138.377 7.988 139.169 7.556C139.961 7.1 141.161 6.872 142.769 6.872H153.425C154.865 6.872 155.885 6.956 156.485 7.124C157.085 7.292 157.385 7.46 157.385 7.628L157.025 11.444C156.641 11.372 155.669 11.3 154.109 11.228C152.573 11.132 150.449 11.084 147.737 11.084H145.181C144.581 11.084 144.197 11.156 144.029 11.3C143.885 11.42 143.813 11.636 143.813 11.948C143.813 12.26 143.885 12.488 144.029 12.632C144.197 12.752 144.581 12.812 145.181 12.812H152.633C154.505 12.812 155.885 13.22 156.773 14.036C157.661 14.852 158.105 15.992 158.105 17.456V18.14C158.105 19.004 157.997 19.808 157.781 20.552C157.565 21.272 157.073 21.86 156.305 22.316C155.537 22.772 154.313 23 152.633 23H141.689Z" fill="black"/>
</svg>
